<svg width="48" height="48" viewBox="0 0 48 48" fill="none" xmlns="http://www.w3.org/2000/svg">
<rect width="48" height="48" rx="24" fill="#F5443A"/>
<g clip-path="url(#clip0_706_1768)">
<path d="M26.5 20.667C27.0175 21.0551 27.4375 21.5584 27.7268 22.1369C28.0161 22.7155 28.1667 23.3535 28.1667 24.0003C28.1667 24.6472 28.0161 25.2852 27.7268 25.8637C27.4375 26.4423 27.0175 26.9455 26.5 27.3337" stroke="white" stroke-linecap="round" stroke-linejoin="round"/>
<path d="M19 26.5002H17.3333C17.1123 26.5002 16.9004 26.4124 16.7441 26.2561C16.5878 26.0998 16.5 25.8879 16.5 25.6668V22.3335C16.5 22.1125 16.5878 21.9005 16.7441 21.7443C16.9004 21.588 17.1123 21.5002 17.3333 21.5002H19L21.9167 17.7502C21.9895 17.6087 22.1105 17.4979 22.2579 17.4379C22.4053 17.3779 22.5693 17.3726 22.7202 17.4229C22.8712 17.4732 22.9991 17.5759 23.081 17.7123C23.1629 17.8487 23.1933 18.01 23.1667 18.1668V29.8335C23.1933 29.9904 23.1629 30.1516 23.081 30.2881C22.9991 30.4245 22.8712 30.5272 22.7202 30.5775C22.5693 30.6278 22.4053 30.6225 22.2579 30.5624C22.1105 30.5024 21.9895 30.3917 21.9167 30.2502L19 26.5002Z" stroke="white" stroke-linecap="round" stroke-linejoin="round"/>
</g>
<defs>
<clipPath id="clip0_706_1768">
<rect width="20" height="20" fill="white" transform="translate(14 14)"/>
</clipPath>
</defs>
</svg>
