<svg width="48" height="48" viewBox="0 0 48 48" fill="none" xmlns="http://www.w3.org/2000/svg">
<rect width="48" height="48" rx="24" fill="#2E79EA"/>
<path d="M28.1333 19.1416C29.8 20.2999 30.95 22.1416 31.1833 24.2666" stroke="white" stroke-linecap="round" stroke-linejoin="round"/>
<path d="M16.9084 24.3086C17.1251 22.1919 18.2584 20.3503 19.9084 19.1836" stroke="white" stroke-linecap="round" stroke-linejoin="round"/>
<path d="M20.825 31.4502C21.7916 31.9419 22.8916 32.2169 24.05 32.2169C25.1666 32.2169 26.2166 31.9669 27.1583 31.5085" stroke="white" stroke-linecap="round" stroke-linejoin="round"/>
<path d="M24.0501 20.4165C25.3295 20.4165 26.3667 19.3793 26.3667 18.0999C26.3667 16.8204 25.3295 15.7832 24.0501 15.7832C22.7706 15.7832 21.7334 16.8204 21.7334 18.0999C21.7334 19.3793 22.7706 20.4165 24.0501 20.4165Z" stroke="white" stroke-linecap="round" stroke-linejoin="round"/>
<path d="M18.0249 30.6001C19.3044 30.6001 20.3416 29.5629 20.3416 28.2835C20.3416 27.004 19.3044 25.9668 18.0249 25.9668C16.7455 25.9668 15.7083 27.004 15.7083 28.2835C15.7083 29.5629 16.7455 30.6001 18.0249 30.6001Z" stroke="white" stroke-linecap="round" stroke-linejoin="round"/>
<path d="M29.9751 30.6001C31.2546 30.6001 32.2918 29.5629 32.2918 28.2835C32.2918 27.004 31.2546 25.9668 29.9751 25.9668C28.6957 25.9668 27.6584 27.004 27.6584 28.2835C27.6584 29.5629 28.6957 30.6001 29.9751 30.6001Z" stroke="white" stroke-linecap="round" stroke-linejoin="round"/>
</svg>
