<svg width="48" height="48" viewBox="0 0 48 48" fill="none" xmlns="http://www.w3.org/2000/svg">
<rect width="48" height="48" rx="24" fill="#44BF78"/>
<g clip-path="url(#clip0_706_1781)">
<path fill-rule="evenodd" clip-rule="evenodd" d="M22.5455 17.4541C22.943 17.4541 23.2727 17.7838 23.2727 18.1814V29.8177C23.2727 30.2153 22.943 30.545 22.5455 30.545C22.1479 30.545 21.8182 30.2153 21.8182 29.8177V18.1814C21.8182 17.7838 22.1479 17.4541 22.5455 17.4541ZM16.7273 19.3935C17.1248 19.3935 17.4545 19.7232 17.4545 20.1208V27.8783C17.4545 28.2759 17.1248 28.6056 16.7273 28.6056C16.3297 28.6056 16 28.2759 16 27.8783V20.1208C16 19.7232 16.3297 19.3935 16.7273 19.3935ZM25.4545 19.3935C25.8521 19.3935 26.1818 19.7232 26.1818 20.1208V27.8783C26.1818 28.2759 25.8521 28.6056 25.4545 28.6056C25.057 28.6056 24.7273 28.2759 24.7273 27.8783V20.1208C24.7273 19.7232 25.057 19.3935 25.4545 19.3935ZM28.3636 22.3026C28.7612 22.3026 29.0909 22.6323 29.0909 23.0299V24.9693C29.0909 25.3668 28.7612 25.6965 28.3636 25.6965C27.9661 25.6965 27.6364 25.3668 27.6364 24.9693V23.0299C27.6364 22.6323 27.9661 22.3026 28.3636 22.3026ZM19.6364 20.848C20.0339 20.848 20.3636 21.1777 20.3636 21.5753V26.4238C20.3636 26.8214 20.0339 27.1511 19.6364 27.1511C19.2388 27.1511 18.9091 26.8214 18.9091 26.4238V21.5753C18.9091 21.1777 19.2388 20.848 19.6364 20.848ZM31.2727 20.848C31.6703 20.848 32 21.1777 32 21.5753V26.4238C32 26.8214 31.6703 27.1511 31.2727 27.1511C30.8752 27.1511 30.5455 26.8214 30.5455 26.4238V21.5753C30.5455 21.1777 30.8752 20.848 31.2727 20.848Z" fill="white"/>
</g>
<defs>
<clipPath id="clip0_706_1781">
<rect width="16" height="16" fill="white" transform="translate(16 16)"/>
</clipPath>
</defs>
</svg>
