<svg width="24" height="24" viewBox="0 0 24 24" fill="none" xmlns="http://www.w3.org/2000/svg">
<g clip-path="url(#clip0_219_2556)">
<path d="M11.9523 7.19238C10.6894 7.19238 9.47819 7.69408 8.58516 8.58711C7.69213 9.48014 7.19043 10.6914 7.19043 11.9543C7.19043 13.2172 7.69213 14.4284 8.58516 15.3215C9.47819 16.2145 10.6894 16.7162 11.9523 16.7162C13.2153 16.7162 14.4265 16.2145 15.3195 15.3215C16.2125 14.4284 16.7142 13.2172 16.7142 11.9543C16.7142 10.6914 16.2125 9.48014 15.3195 8.58711C14.4265 7.69408 13.2153 7.19238 11.9523 7.19238ZM11.9523 15.0468C11.1319 15.0468 10.345 14.7209 9.76484 14.1408C9.18468 13.5606 8.85874 12.7737 8.85874 11.9533C8.85874 11.1328 9.18468 10.3459 9.76484 9.76576C10.345 9.1856 11.1319 8.85967 11.9523 8.85967C12.7728 8.85967 13.5597 9.1856 14.1398 9.76576C14.72 10.3459 15.0459 11.1328 15.0459 11.9533C15.0459 12.7737 14.72 13.5606 14.1398 14.1408C13.5597 14.7209 12.7728 15.0468 11.9523 15.0468Z" fill="#7D7C81"/>
<path d="M16.7889 8.01534C17.5779 8.01534 18.2175 7.37575 18.2175 6.58677C18.2175 5.7978 17.5779 5.1582 16.7889 5.1582C15.9999 5.1582 15.3604 5.7978 15.3604 6.58677C15.3604 7.37575 15.9999 8.01534 16.7889 8.01534Z" fill="#7D7C81"/>
<path d="M22.7996 4.48313C22.5057 3.72551 22.0567 3.03749 21.4812 2.46312C20.9057 1.88874 20.2165 1.44067 19.4575 1.14758C18.5695 0.814729 17.6313 0.634751 16.6829 0.615309C15.4606 0.562083 15.0735 0.546875 11.9739 0.546875C8.87431 0.546875 8.47703 0.546875 7.26487 0.615309C6.31721 0.633757 5.37968 0.813772 4.49277 1.14758C3.73366 1.44033 3.04422 1.88828 2.46869 2.4627C1.89316 3.03712 1.44425 3.72531 1.15076 4.48313C0.817325 5.36975 0.637481 6.30658 0.618931 7.25346C0.564352 8.47261 0.547852 8.85914 0.547852 11.9552C0.547852 15.0499 0.547852 15.4441 0.618931 16.6569C0.63797 17.6048 0.816938 18.5401 1.15076 19.4285C1.44508 20.186 1.89442 20.8739 2.47009 21.4483C3.04576 22.0226 3.73509 22.4707 4.49403 22.764C5.37927 23.1103 6.31719 23.3031 7.2674 23.3343C8.48972 23.3875 8.87685 23.404 11.9764 23.404C15.076 23.404 15.4733 23.404 16.6854 23.3343C17.6337 23.3151 18.5719 23.1355 19.4601 22.8033C20.2188 22.5095 20.9078 22.0611 21.4833 21.4865C22.0587 20.912 22.5079 20.224 22.8021 19.4665C23.1359 18.5794 23.3149 17.6441 23.3339 16.6962C23.3885 15.477 23.405 15.0905 23.405 11.9945C23.405 8.89843 23.405 8.50556 23.3339 7.29275C23.3191 6.33248 23.1384 5.38196 22.7996 4.48313V4.48313ZM21.2536 16.5631C21.2454 17.2935 21.1119 18.017 20.8588 18.7023C20.6682 19.1951 20.3764 19.6427 20.0022 20.0161C19.6279 20.3895 19.1795 20.6806 18.6858 20.8707C18.007 21.1222 17.2901 21.2555 16.5661 21.2648C15.3603 21.3206 15.0202 21.3345 11.9282 21.3345C8.83369 21.3345 8.51764 21.3345 7.28898 21.2648C6.5654 21.256 5.84877 21.1226 5.17056 20.8707C4.67514 20.6818 4.22495 20.3912 3.8491 20.0177C3.47325 19.6442 3.18012 19.1961 2.98867 18.7023C2.73919 18.0244 2.60575 17.3093 2.59393 16.5872C2.53935 15.3832 2.52665 15.0436 2.52665 11.9564C2.52665 8.86801 2.52665 8.55245 2.59393 7.32443C2.60213 6.59449 2.73565 5.87136 2.98867 5.18648C3.3758 4.18658 4.1691 3.39958 5.17056 3.01686C5.8491 2.76611 6.56553 2.63282 7.28898 2.62272C8.49607 2.56823 8.83496 2.55302 11.9282 2.55302C15.0214 2.55302 15.3387 2.55302 16.5661 2.62272C17.2901 2.63142 18.0072 2.76475 18.6858 3.01686C19.1795 3.2073 19.6278 3.49869 20.002 3.87233C20.3762 4.24596 20.6681 4.69359 20.8588 5.18648C21.1083 5.86443 21.2418 6.57946 21.2536 7.30162C21.3081 8.50683 21.3221 8.8452 21.3221 11.9336C21.3221 15.0208 21.3221 15.3528 21.2675 16.5644H21.2536V16.5631Z" fill="#7D7C81"/>
</g>
<defs>
<clipPath id="clip0_219_2556">
<rect width="22.8571" height="22.8571" fill="white" transform="translate(0.524414 0.524414)"/>
</clipPath>
</defs>
</svg>
