<svg width="23" height="24" viewBox="0 0 23 24" fill="none" xmlns="http://www.w3.org/2000/svg">
<g clip-path="url(#clip0_219_2555)">
<g clip-path="url(#clip1_219_2555)">
<g clip-path="url(#clip2_219_2555)">
<path d="M0 23.3816L1.60667 17.512C0.615238 15.7939 0.0942857 13.8463 0.0952381 11.8492C0.0980952 5.60537 5.17905 0.524414 11.4219 0.524414C14.4514 0.525366 17.2952 1.70537 19.4343 3.84632C21.5724 5.98727 22.7495 8.83299 22.7486 11.8597C22.7457 18.1044 17.6648 23.1854 11.4219 23.1854C9.52667 23.1844 7.65905 22.7092 6.00476 21.8063L0 23.3816ZM6.28286 19.7558C7.87905 20.7035 9.40286 21.2711 11.4181 21.272C16.6067 21.272 20.8333 17.0492 20.8362 11.8577C20.8381 6.65584 16.6314 2.4387 11.4257 2.43679C6.23333 2.43679 2.00952 6.65965 2.00762 11.8501C2.00667 13.9692 2.62762 15.5558 3.67048 17.2158L2.71905 20.6901L6.28286 19.7558ZM17.1276 14.552C17.0571 14.4339 16.8686 14.3635 16.5848 14.2216C16.3019 14.0797 14.9105 13.3949 14.6505 13.3006C14.3914 13.2063 14.2029 13.1587 14.0133 13.4425C13.8248 13.7254 13.2819 14.3635 13.1171 14.552C12.9524 14.7406 12.7867 14.7644 12.5038 14.6225C12.221 14.4806 11.3086 14.1825 10.2276 13.2177C9.38667 12.4673 8.8181 11.5406 8.65333 11.2568C8.48857 10.9739 8.63619 10.8206 8.77714 10.6797C8.90476 10.553 9.06 10.3492 9.2019 10.1835C9.34571 10.0197 9.39238 9.90156 9.48762 9.71203C9.5819 9.52346 9.53524 9.35775 9.46381 9.21584C9.39238 9.07489 8.82667 7.68156 8.59143 7.11489C8.36095 6.56346 8.12762 6.63775 7.95429 6.62918L7.41143 6.61965C7.22286 6.61965 6.91619 6.69013 6.65714 6.97394C6.3981 7.25775 5.66667 7.94156 5.66667 9.33489C5.66667 10.7282 6.68095 12.0739 6.8219 12.2625C6.96381 12.4511 8.81714 15.3101 11.6562 16.5358C12.3314 16.8273 12.859 17.0016 13.2695 17.132C13.9476 17.3473 14.5648 17.3168 15.0524 17.2444C15.5962 17.1635 16.7267 16.5597 16.9629 15.8987C17.199 15.2368 17.199 14.6701 17.1276 14.552Z" fill="#7D7C81"/>
</g>
</g>
</g>
<defs>
<clipPath id="clip0_219_2555">
<rect width="22.8571" height="22.8571" fill="white" transform="translate(0 0.524414)"/>
</clipPath>
<clipPath id="clip1_219_2555">
<rect width="22.8571" height="22.8571" fill="white" transform="translate(0 0.524414)"/>
</clipPath>
<clipPath id="clip2_219_2555">
<rect width="22.8571" height="22.8571" fill="white" transform="translate(0 0.524414)"/>
</clipPath>
</defs>
</svg>
