<svg width="105" height="101" viewBox="0 0 105 101" fill="none" xmlns="http://www.w3.org/2000/svg">
<mask id="mask0_202_2261" style="mask-type:luminance" maskUnits="userSpaceOnUse" x="0" y="0" width="105" height="101">
<path d="M95 0.862305H10C4.47715 0.862305 0 5.30039 0 10.7751V91.0683C0 96.543 4.47715 100.981 10 100.981H95C100.523 100.981 105 96.543 105 91.0683V10.7751C105 5.30039 100.523 0.862305 95 0.862305Z" fill="white"/>
</mask>
<g mask="url(#mask0_202_2261)">
<path d="M95 0.862305H10C4.47715 0.862305 0 5.30039 0 10.7751V91.0683C0 96.543 4.47715 100.981 10 100.981H95C100.523 100.981 105 96.543 105 91.0683V10.7751C105 5.30039 100.523 0.862305 95 0.862305Z" fill="url(#paint0_linear_202_2261)"/>
<path d="M105 0.862305H0V24.6529H105V0.862305Z" fill="#7B68EE"/>
<path opacity="0.33" d="M10 46.4609H-16C-18.7614 46.4609 -21 48.68 -21 51.4173V71.2428C-21 73.9801 -18.7614 76.1992 -16 76.1992H10C12.7614 76.1992 15 73.9801 15 71.2428V51.4173C15 48.68 12.7614 46.4609 10 46.4609Z" fill="#7B68EE"/>
<path opacity="0.33" d="M122 46.4609H96C93.2386 46.4609 91 48.68 91 51.4173V71.2428C91 73.9801 93.2386 76.1992 96 76.1992H122C124.761 76.1992 127 73.9801 127 71.2428V51.4173C127 48.68 124.761 46.4609 122 46.4609Z" fill="#7B68EE"/>
<path d="M25 65.7151C25 63.182 27.0716 61.1284 29.6271 61.1284C32.1826 61.1284 34.2542 63.182 34.2542 65.7151V79.4754H25V65.7151Z" fill="#533AE9"/>
<path d="M36.8984 59.1629C36.8984 56.6297 38.97 54.5762 41.5255 54.5762C44.081 54.5762 46.1526 56.6297 46.1526 59.1629V79.4756H36.8984V59.1629Z" fill="#7B68EE"/>
<path d="M48.7969 71.6126C48.7969 69.4414 50.5726 67.6812 52.763 67.6812C54.9535 67.6812 56.7292 69.4414 56.7292 71.6126V79.4756H48.7969V71.6126Z" fill="#533AE9"/>
<path d="M59.373 42.1264C59.373 39.5932 61.4446 37.5396 64.0001 37.5396C66.5556 37.5396 68.6273 39.5932 68.6273 42.1264V79.4755H59.373V42.1264Z" fill="#7B68EE"/>
<path d="M71.2715 51.2996C71.2715 48.7665 73.3431 46.7129 75.8986 46.7129C78.4541 46.7129 80.5257 48.7665 80.5257 51.2996V79.4754H71.2715V51.2996Z" fill="#533AE9"/>
</g>
<defs>
<linearGradient id="paint0_linear_202_2261" x1="52.5" y1="0.862305" x2="52.5" y2="100.981" gradientUnits="userSpaceOnUse">
<stop stop-color="#E6E2FF"/>
<stop offset="1" stop-color="#F2F3FF"/>
</linearGradient>
</defs>
</svg>
