<svg width="112" height="95" viewBox="0 0 112 95" fill="none" xmlns="http://www.w3.org/2000/svg">
<g clip-path="url(#clip0_202_2235)">
<rect width="105" height="87" rx="10" fill="#7B68EE"/>
<path d="M95 0H10C4.47715 0 0 4.47715 0 10V77C0 82.5229 4.47715 87 10 87H95C100.523 87 105 82.5229 105 77V10C105 4.47715 100.523 0 95 0Z" fill="url(#paint0_linear_202_2235)"/>
<path d="M105 0H0V24H105V0Z" fill="#7B68EE"/>
<path d="M9 70.686V72.9106C9 74.5674 10.3431 75.9106 12 75.9106H25.6094H39.2188C40.8756 75.9106 42.2188 74.5674 42.2188 72.9106V70.686C42.2188 64.0586 36.8462 58.686 30.2188 58.686H21C14.3726 58.686 9 64.0586 9 70.686Z" fill="#7B68EE"/>
<path d="M25.6123 54.9942C30.029 54.9942 33.6095 51.4138 33.6095 46.9971C33.6095 42.5804 30.029 39 25.6123 39C21.1957 39 17.6152 42.5804 17.6152 46.9971C17.6152 51.4138 21.1957 54.9942 25.6123 54.9942Z" fill="#7B68EE"/>
<path d="M12.9998 16C15.2088 16 16.9996 14.2091 16.9996 12C16.9996 9.79086 15.2088 8 12.9998 8C10.7908 8 9 9.79086 9 12C9 14.2091 10.7908 16 12.9998 16Z" fill="white"/>
<path d="M23.6639 16C25.8729 16 27.6637 14.2091 27.6637 12C27.6637 9.79086 25.8729 8 23.6639 8C21.4548 8 19.6641 9.79086 19.6641 12C19.6641 14.2091 21.4548 16 23.6639 16Z" fill="white"/>
<path d="M34.3338 16C36.5428 16 38.3336 14.2091 38.3336 12C38.3336 9.79086 36.5428 8 34.3338 8C32.1248 8 30.334 9.79086 30.334 12C30.334 14.2091 32.1248 16 34.3338 16Z" fill="white"/>
</g>
<path d="M112 74.6859C112 63.4628 102.822 54.3647 91.5 54.3647C80.1782 54.3647 71 63.4628 71 74.6859C71 85.9089 80.1782 95.007 91.5 95.007C102.822 95.007 112 85.9089 112 74.6859Z" fill="#7B68EE"/>
<path d="M81 73.6947L88.6 81.1293L102 68.2427" fill="#7B68EE"/>
<path d="M81 73.6947L88.6 81.1293L102 68.2427" stroke="white" stroke-width="4"/>
<defs>
<linearGradient id="paint0_linear_202_2235" x1="52.5" y1="0" x2="52.5" y2="87" gradientUnits="userSpaceOnUse">
<stop stop-color="#E6E2FF"/>
<stop offset="1" stop-color="#F2F3FF"/>
</linearGradient>
<clipPath id="clip0_202_2235">
<rect width="105" height="87" rx="10" fill="white"/>
</clipPath>
</defs>
</svg>
