<svg width="84" height="85" viewBox="0 0 84 85" fill="none" xmlns="http://www.w3.org/2000/svg">
<path d="M42 84.0596C65.196 84.0596 84 65.4196 84 42.426C84 19.4325 65.196 0.79248 42 0.79248C18.804 0.79248 0 19.4325 0 42.426C0 65.4196 18.804 84.0596 42 84.0596Z" fill="url(#paint0_linear_202_2275)"/>
<path d="M60.9999 47.3823C63.209 47.3823 65.0353 49.1708 64.653 51.3276C63.8409 55.9094 61.6268 60.1698 58.2634 63.5039C53.95 67.7796 48.0999 70.1816 41.9999 70.1816C35.8999 70.1816 30.0498 67.7796 25.7364 63.5039C22.373 60.1698 20.1589 55.9094 19.3468 51.3276C18.9645 49.1708 20.7908 47.3823 22.9999 47.3823H41.9999H60.9999Z" fill="#7B68EE"/>
<path fill-rule="evenodd" clip-rule="evenodd" d="M57.582 64.4143C53.3809 68.119 47.9434 70.1814 42.291 70.1814C36.6387 70.1814 31.2012 68.119 27 64.4143C31.0996 60.487 36.582 58.2861 42.291 58.2861C48 58.2861 53.4824 60.487 57.582 64.4143Z" fill="white"/>
<path d="M37 31.5219C36.2391 29.5394 33.0739 24.583 26.5 24.583C19.9261 24.583 16.7609 29.5394 16 31.5219" stroke="#7B68EE" stroke-width="5"/>
<path d="M68 31.5219C67.2391 29.5394 64.0739 24.583 57.5 24.583C50.9261 24.583 47.7609 29.5394 47 31.5219" stroke="#7B68EE" stroke-width="5"/>
<defs>
<linearGradient id="paint0_linear_202_2275" x1="42" y1="0.79248" x2="42" y2="84.0596" gradientUnits="userSpaceOnUse">
<stop stop-color="#E6E2FF"/>
<stop offset="1" stop-color="#F2F3FF"/>
</linearGradient>
</defs>
</svg>
