<svg xmlns="http://www.w3.org/2000/svg" width="24" height="24" viewBox="0 0 24 24" fill="none">
    <path d="M8.97604 5.02375L6.00104 2.04875C5.66954 1.71682 5.13064 1.71682 4.79914 2.04875L1.82414 5.02375C1.49221 5.35567 1.49221 5.89372 1.82414 6.22565C2.15564 6.55757 2.69454 6.55757 3.02604 6.22565L4.55009 4.7016V21.3497C4.55009 21.8189 4.93089 22.1997 5.40009 22.1997C5.86929 22.1997 6.25009 21.8189 6.25009 21.3497V4.7016L7.77414 6.22565C7.93989 6.39182 8.15749 6.4747 8.37509 6.4747C8.59269 6.4747 8.81029 6.39182 8.97604 6.22565C9.30796 5.89372 9.30796 5.35567 8.97604 5.02375V5.02375Z" fill="#818A97"/>
    <path d="M22.176 17.7739C21.8441 17.4419 21.306 17.4419 20.9741 17.7739L19.45 19.2979V2.6498C19.45 2.1806 19.0692 1.7998 18.6 1.7998C18.1308 1.7998 17.75 2.1806 17.75 2.6498V19.2979L16.226 17.7739C15.8941 17.4419 15.3556 17.4419 15.0241 17.7739C14.6922 18.1058 14.6922 18.6438 15.0241 18.9758L17.9991 21.9508C18.1653 22.1169 18.3824 22.1998 18.6 22.1998C18.8176 22.1998 19.0348 22.1169 19.201 21.9508L22.176 18.9758C22.5079 18.6438 22.5079 18.1058 22.176 17.7739Z" fill="#818A97"/>
</svg>