<svg xmlns="http://www.w3.org/2000/svg" width="16" height="16" viewBox="0 0 16 16" fill="none">
    <path d="M14.16 5.20497V5.20634V10.793C14.16 11.9069 13.8299 12.736 13.2798 13.2861C12.7297 13.8362 11.9006 14.1663 10.7867 14.1663H5.20671C4.09282 14.1663 3.26388 13.8363 2.71382 13.2855C2.16368 12.7347 1.83337 11.9039 1.83337 10.7863V5.20634C1.83337 4.09244 2.16347 3.26335 2.71359 2.71323C3.26372 2.1631 4.09281 1.83301 5.20671 1.83301H10.7934C11.9074 1.83301 12.7363 2.16314 13.2854 2.71301C13.8345 3.26276 14.1631 4.09139 14.16 5.20497ZM11.5403 6.8199L11.5403 6.81995L11.5462 6.81385C11.9236 6.42341 11.9321 5.79796 11.5403 5.40612C11.1517 5.01753 10.5151 5.01753 10.1265 5.40612L7.05337 8.47924L5.87359 7.29945C5.485 6.91086 4.84842 6.91086 4.45982 7.29945C4.07123 7.68805 4.07123 8.32463 4.45982 8.71323L6.34649 10.5999C6.53252 10.7859 6.78593 10.893 7.05337 10.893C7.32082 10.893 7.57423 10.7859 7.76026 10.5999L11.5403 6.8199Z" fill="#63BD6C" stroke="#63BD6C"/>
</svg>