<svg xmlns="http://www.w3.org/2000/svg" width="51" height="50" viewBox="0 0 51 50" fill="none">
    <path d="M34.8759 39.0625H16.1259M34.8759 39.0625C36.5335 39.0625 38.1232 39.721 39.2953 40.8931C40.4674 42.0652 41.1259 43.6549 41.1259 45.3125H9.8759C9.8759 43.6549 10.5344 42.0652 11.7065 40.8931C12.8786 39.721 14.4683 39.0625 16.1259 39.0625M34.8759 39.0625V32.0312C34.8759 30.7375 33.828 29.6875 32.5322 29.6875H30.7176M16.1259 39.0625V32.0312C16.1259 30.7375 17.1759 29.6875 18.4697 29.6875H20.2863M30.7176 29.6875H20.2863M30.7176 29.6875C29.5474 27.6666 28.8481 25.4077 28.6717 23.0792M20.2863 29.6875C21.4557 27.6664 22.1543 25.4076 22.3301 23.0792M28.6717 23.0792C30.7716 22.5945 32.7294 21.6321 34.3967 20.2667M28.6717 23.0792C26.5852 23.5604 24.4166 23.5604 22.3301 23.0792M22.3301 23.0792C20.2309 22.5942 18.2718 21.6318 16.6051 20.2667M11.4384 8.825C9.39257 9.12292 7.36757 9.48542 5.3634 9.90833C5.82798 12.635 7.18336 15.1307 9.21745 17.0049C11.2515 18.8792 13.8496 20.0263 16.6051 20.2667M11.4384 8.825V9.375C11.4384 13.7667 13.4509 17.6875 16.6051 20.2667M11.4384 8.825V5.66875C16.0342 5.02083 20.7301 4.6875 25.5009 4.6875C30.2738 4.6875 34.9697 5.02083 39.5634 5.66667V8.825M39.5634 8.825V9.375C39.5634 13.7667 37.5509 17.6875 34.3967 20.2667M39.5634 8.825C41.5994 9.12126 43.6255 9.48255 45.6384 9.90833C45.1739 12.6347 43.8188 15.1301 41.7852 17.0044C39.7515 18.8786 37.1518 20.0258 34.3967 20.2667" stroke="white" stroke-width="2.5" stroke-linecap="round" stroke-linejoin="round"/>
</svg>