<svg xmlns="http://www.w3.org/2000/svg" width="16" height="17" viewBox="0 0 16 17" fill="none">
    <path fill-rule="evenodd" clip-rule="evenodd" d="M6.15633 2.15625C6.15633 1.79258 5.86375 1.5 5.50007 1.5C5.13639 1.5 4.8438 1.79258 4.8438 2.15625V3.25H3.75003C2.78478 3.25 2 4.03477 2 5V5.4375V6.75V13.75C2 14.7152 2.78478 15.5 3.75003 15.5H12.5002C13.4655 15.5 14.2502 14.7152 14.2502 13.75V6.75V5.4375V5C14.2502 4.03477 13.4655 3.25 12.5002 3.25H11.4064V2.15625C11.4064 1.79258 11.1138 1.5 10.7502 1.5C10.3865 1.5 10.0939 1.79258 10.0939 2.15625V3.25H6.15633V2.15625ZM3.31253 6.75H12.9377V13.75C12.9377 13.9906 12.7408 14.1875 12.5002 14.1875H3.75003C3.5094 14.1875 3.31253 13.9906 3.31253 13.75V6.75ZM4.62505 9.15625C4.62505 9.51992 4.91763 9.8125 5.28131 9.8125H10.9689C11.3326 9.8125 11.6252 9.51992 11.6252 9.15625C11.6252 8.79258 11.3326 8.5 10.9689 8.5H5.28131C4.91763 8.5 4.62505 8.79258 4.62505 9.15625ZM5.28131 11.125C4.91763 11.125 4.62505 11.4176 4.62505 11.7812C4.62505 12.1449 4.91763 12.4375 5.28131 12.4375H8.34387C8.70755 12.4375 9.00013 12.1449 9.00013 11.7812C9.00013 11.4176 8.70755 11.125 8.34387 11.125H5.28131Z" fill="#333333"/>
</svg>