<svg width="48" height="48" viewBox="0 0 48 48" fill="none" xmlns="http://www.w3.org/2000/svg">
<rect width="48" height="48" rx="24" fill="#A396F3"/>
<path d="M27.7496 29.625H20.2496M27.7496 29.625C28.4126 29.625 29.0485 29.8884 29.5173 30.3572C29.9862 30.8261 30.2496 31.462 30.2496 32.125H17.7496C17.7496 31.462 18.013 30.8261 18.4818 30.3572C18.9507 29.8884 19.5865 29.625 20.2496 29.625M27.7496 29.625V26.8125C27.7496 26.295 27.3304 25.875 26.8121 25.875H26.0862M20.2496 29.625V26.8125C20.2496 26.295 20.6696 25.875 21.1871 25.875H21.9137M26.0862 25.875H21.9137M26.0862 25.875C25.6182 25.0666 25.3385 24.1631 25.2679 23.2317M21.9137 25.875C22.3815 25.0666 22.6609 24.163 22.7312 23.2317M25.2679 23.2317C26.1079 23.0378 26.891 22.6528 27.5579 22.1067M25.2679 23.2317C24.4333 23.4242 23.5658 23.4242 22.7312 23.2317M22.7312 23.2317C21.8916 23.0377 21.1079 22.6527 20.4412 22.1067M18.3746 17.53C17.5562 17.6492 16.7462 17.7942 15.9446 17.9633C16.1304 19.054 16.6726 20.0523 17.4862 20.802C18.2998 21.5517 19.3391 22.0105 20.4412 22.1067M18.3746 17.53V17.75C18.3746 19.5067 19.1796 21.075 20.4412 22.1067M18.3746 17.53V16.2675C20.2129 16.0083 22.0912 15.875 23.9996 15.875C25.9087 15.875 27.7871 16.0083 29.6246 16.2667V17.53M29.6246 17.53V17.75C29.6246 19.5067 28.8196 21.075 27.5579 22.1067M29.6246 17.53C30.439 17.6485 31.2494 17.793 32.0546 17.9633C31.8688 19.0539 31.3268 20.052 30.5133 20.8017C29.6998 21.5514 28.66 22.0103 27.5579 22.1067" stroke="white" stroke-linecap="round" stroke-linejoin="round"/>
</svg>
