<svg xmlns="http://www.w3.org/2000/svg" width="17" height="17" viewBox="0 0 17 17" fill="none">
    <path fill-rule="evenodd" clip-rule="evenodd" d="M3.47393 2.2998C2.59143 2.2998 1.87393 3.0173 1.87393 3.8998V9.4998H0.753926C0.488926 9.4998 0.273926 9.71481 0.273926 9.9798C0.273926 11.0398 1.13393 11.8998 2.19393 11.8998H9.07393V9.4998H3.47393V3.8998H11.4739V4.6998H13.0739V3.8998C13.0739 3.0173 12.3564 2.2998 11.4739 2.2998H3.47393ZM11.4739 13.4998V7.0998H14.6739V13.4998H11.4739ZM9.87393 6.6998V13.8998C9.87393 14.5623 10.4114 15.0998 11.0739 15.0998H15.0739C15.7364 15.0998 16.2739 14.5623 16.2739 13.8998V6.6998C16.2739 6.0373 15.7364 5.4998 15.0739 5.4998H11.0739C10.4114 5.4998 9.87393 6.0373 9.87393 6.6998Z" fill="#333333"/>
</svg>