<svg xmlns="http://www.w3.org/2000/svg" width="17" height="17" viewBox="0 0 17 17" fill="none">
    <path fill-rule="evenodd" clip-rule="evenodd" d="M8.27391 14.1331C8.47433 14.1331 9.00516 13.9381 9.56308 12.8222C9.80141 12.3429 10.0072 11.7606 10.1589 11.0997H6.38891C6.54058 11.7606 6.74641 12.3429 6.98475 12.8222C7.54266 13.9381 8.0735 14.1331 8.27391 14.1331ZM6.17496 9.79975H10.3728C10.4162 9.38537 10.4406 8.94933 10.4406 8.49975C10.4406 8.05016 10.4162 7.61412 10.3728 7.19975H6.17496C6.13162 7.61412 6.10725 8.05016 6.10725 8.49975C6.10725 8.94933 6.13162 9.38537 6.17496 9.79975ZM6.38891 5.89975H10.1589C10.0072 5.23891 9.80141 4.65662 9.56308 4.17725C9.00516 3.06141 8.47433 2.86641 8.27391 2.86641C8.0735 2.86641 7.54266 3.06141 6.98475 4.17725C6.74641 4.65662 6.54058 5.23891 6.38891 5.89975ZM11.6783 7.19975C11.7189 7.61954 11.7378 8.05558 11.7378 8.49975C11.7378 8.94391 11.7162 9.37996 11.6783 9.79975H13.7556C13.8531 9.38266 13.9072 8.94662 13.9072 8.49975C13.9072 8.05287 13.8558 7.61683 13.7556 7.19975H11.681H11.6783ZM13.2708 5.89975C12.6912 4.78662 11.7514 3.89287 10.6058 3.37016C10.9876 4.0635 11.291 4.92746 11.4887 5.89975H13.2735H13.2708ZM5.05641 5.89975C5.25412 4.92746 5.55746 4.06621 5.93933 3.37016C4.79371 3.89287 3.85391 4.78662 3.27433 5.89975H5.05912H5.05641ZM2.79225 7.19975C2.69475 7.61683 2.64058 8.05287 2.64058 8.49975C2.64058 8.94662 2.69204 9.38266 2.79225 9.79975H4.86954C4.82891 9.37996 4.80996 8.94391 4.80996 8.49975C4.80996 8.05558 4.83162 7.61954 4.86954 7.19975H2.79225ZM10.6058 13.6293C11.7514 13.1066 12.6912 12.2129 13.2708 11.0997H11.4887C11.291 12.072 10.9876 12.9333 10.6058 13.6293ZM5.94204 13.6293C5.56016 12.936 5.25683 12.072 5.05912 11.0997H3.27433C3.85391 12.2129 4.79371 13.1066 5.93933 13.6293H5.94204ZM8.27391 15.4331C6.43508 15.4331 4.67156 14.7026 3.37131 13.4023C2.07105 12.1021 1.34058 10.3386 1.34058 8.49975C1.34058 6.66091 2.07105 4.89739 3.37131 3.59714C4.67156 2.29689 6.43508 1.56641 8.27391 1.56641C10.1127 1.56641 11.8762 2.29689 13.1765 3.59714C14.4767 4.89739 15.2072 6.66091 15.2072 8.49975C15.2072 10.3386 14.4767 12.1021 13.1765 13.4023C11.8762 14.7026 10.1127 15.4331 8.27391 15.4331Z" fill="#333333"/>
</svg>