<svg width="24" height="24" viewBox="0 0 24 24" fill="none" xmlns="http://www.w3.org/2000/svg">
<path fill-rule="evenodd" clip-rule="evenodd" d="M0 19.5309V4.46905C0 2.01102 2.011 0 4.469 0H19.531C21.989 0 24 2.01102 24 4.46905V19.5309C24 21.9893 21.989 24 19.531 24H4.469C2.011 24 0 21.9893 0 19.5309ZM16.6881 19.1497L13.8779 15.2353L14.9675 18.3097L16.6881 19.1497ZM15.367 16.1061C14.6519 15.1704 14.2432 14.6357 12.1678 11.9242L12.1674 11.9246L9.26091 16.2496L9.83535 14.8224L9.34851 14.8388L6.27642 19.1502H3.71079L11.9853 4.81725L20.2598 19.1502H17.6942C16.4268 17.493 15.8321 16.7147 15.367 16.1061ZM12.5182 14.5424L12.5182 14.5427V14.5423L12.5182 14.5424ZM12.1509 12.7975L12.5182 14.5424L12.0524 15.4827L11.5893 13.9824L11.5797 15.1509L10.9322 17.3406L10.5344 16.2524L8.57376 18.2737L12.1509 12.7975Z" fill="#7B68EE"/>
</svg>
