<svg width="72" height="18" viewBox="0 0 72 18" fill="none" xmlns="http://www.w3.org/2000/svg">
<path d="M7.30186 4.11576L3.33596 14H0.128374L6.12516 1.30913H8.14733L7.30186 4.11576ZM7.40645 14L6.84861 3.81941L6.91834 1.30913H8.84463L10.4484 14H7.40645ZM8.30423 9.26707L7.88585 11.6292H2.53406L2.95244 9.26707H8.30423ZM15.0378 17.626L16.999 6.3907L17.6701 4.56901H20.1107L17.8532 17.626H15.0378ZM11.8738 9.72032L11.9784 8.84869C12.0482 8.3199 12.1527 7.79112 12.2922 7.26233C12.4317 6.72773 12.635 6.23962 12.9023 5.798C13.1755 5.35638 13.5241 5.00482 13.9483 4.74333C14.3783 4.48184 14.9129 4.36853 15.5521 4.4034C16.0867 4.42083 16.4963 4.59806 16.7811 4.93509C17.0716 5.26631 17.2779 5.67888 17.3999 6.1728C17.522 6.66672 17.5888 7.16936 17.6004 7.68071C17.6178 8.19207 17.6207 8.63659 17.6091 9.0143L17.522 9.61572C17.4522 10.0225 17.3447 10.4903 17.1995 11.019C17.06 11.542 16.8653 12.0476 16.6155 12.5357C16.3656 13.018 16.0518 13.4189 15.6741 13.7385C15.2964 14.0523 14.8403 14.2005 14.3057 14.183C13.7013 14.1714 13.2219 14.0261 12.8675 13.7472C12.5188 13.4625 12.2632 13.0964 12.1004 12.649C11.9436 12.2015 11.8535 11.7222 11.8302 11.2108C11.807 10.6936 11.8215 10.1968 11.8738 9.72032ZM14.7676 8.83126L14.6717 9.72903C14.6543 9.89174 14.6253 10.0951 14.5846 10.3392C14.5497 10.5774 14.5323 10.8186 14.5323 11.0626C14.5323 11.3009 14.5817 11.5042 14.6805 11.6728C14.7792 11.8355 14.9594 11.9197 15.2209 11.9255C15.6102 11.9488 15.9007 11.8529 16.0925 11.6379C16.2843 11.4171 16.415 11.144 16.4847 10.8186C16.5545 10.4873 16.5951 10.1678 16.6068 9.85978L16.7549 8.78768C16.784 8.60173 16.8189 8.39254 16.8595 8.16011C16.9002 7.92186 16.9147 7.68943 16.9031 7.4628C16.8915 7.23618 16.8276 7.04733 16.7113 6.89625C16.6009 6.74517 16.4034 6.66091 16.1186 6.64348C15.8223 6.63185 15.587 6.69577 15.4126 6.83523C15.2441 6.97469 15.1163 7.16064 15.0291 7.39307C14.9419 7.62551 14.8809 7.86956 14.8461 8.12524C14.817 8.38092 14.7909 8.61626 14.7676 8.83126ZM22.6082 12.7536L25.8419 4.56901H28.91L24.0464 15.412C23.9011 15.7433 23.7355 16.0541 23.5495 16.3447C23.3694 16.641 23.1602 16.8996 22.922 17.1204C22.6837 17.3412 22.4106 17.5156 22.1026 17.6434C21.8005 17.7712 21.4518 17.8322 21.0567 17.8264C20.8533 17.8322 20.6557 17.8148 20.464 17.7741C20.2722 17.7335 20.0776 17.6841 19.88 17.626L20.1502 15.5341C20.1909 15.5399 20.2316 15.5428 20.2722 15.5428C20.3129 15.5486 20.3536 15.5515 20.3943 15.5515C20.6034 15.5573 20.7865 15.5253 20.9434 15.4556C21.1003 15.3917 21.2368 15.2958 21.353 15.168C21.4693 15.046 21.568 14.8949 21.6494 14.7147L22.6082 12.7536ZM23.9505 4.56901L24.0638 11.3067L23.8285 14.2789L22.0155 14.2702L21.0393 4.56901H23.9505ZM33.3426 0.611825L31.024 14H28.2261L30.5534 0.611825H33.3426ZM38.5595 10.5571C38.6002 10.3305 38.6031 10.1271 38.5682 9.94694C38.5334 9.7668 38.4636 9.60991 38.3591 9.47626C38.2603 9.3368 38.1295 9.20896 37.9668 9.09275C37.8099 8.97653 37.6356 8.86903 37.4438 8.77024C37.0197 8.56686 36.6216 8.34024 36.2497 8.09038C35.8778 7.8347 35.5495 7.54706 35.2648 7.22747C34.9859 6.90787 34.7738 6.5476 34.6285 6.14665C34.489 5.7457 34.4338 5.28665 34.4629 4.76948C34.4977 4.1884 34.6459 3.67123 34.9074 3.21799C35.1689 2.75893 35.5117 2.37541 35.9359 2.06744C36.3601 1.75365 36.8337 1.51832 37.3567 1.36142C37.8797 1.19872 38.4114 1.12318 38.9518 1.1348C39.7304 1.14642 40.3841 1.32656 40.9129 1.67521C41.4417 2.02386 41.8397 2.49454 42.107 3.08724C42.3743 3.67995 42.4993 4.34238 42.4818 5.07455L39.5968 5.08327C39.6026 4.84502 39.5968 4.60097 39.5793 4.3511C39.5619 4.10123 39.4893 3.89204 39.3614 3.72353C39.2394 3.5492 39.0215 3.45914 38.7077 3.45333C38.4578 3.44751 38.237 3.50853 38.0453 3.63637C37.8535 3.76421 37.6966 3.93272 37.5746 4.14191C37.4584 4.34529 37.3799 4.5632 37.3393 4.79563C37.3044 4.9932 37.3189 5.17333 37.3828 5.33604C37.4468 5.49874 37.5426 5.64692 37.6705 5.78057C37.7983 5.91422 37.9407 6.03334 38.0976 6.13793C38.2603 6.24253 38.4143 6.3355 38.5595 6.41685C39.0186 6.62604 39.4312 6.86138 39.7972 7.12287C40.1633 7.38436 40.4742 7.68071 40.7299 8.01193C40.9914 8.33734 41.1831 8.70923 41.3051 9.12761C41.433 9.54018 41.4795 10.0109 41.4446 10.5396C41.4039 11.1324 41.2645 11.6582 41.0262 12.1173C40.788 12.5705 40.4742 12.954 40.0849 13.2678C39.6955 13.5758 39.251 13.8082 38.7513 13.9651C38.2516 14.1162 37.714 14.1889 37.1388 14.183C36.5054 14.1656 35.9388 14.0523 35.4391 13.8431C34.9452 13.6281 34.5297 13.3288 34.1927 12.9453C33.8557 12.5618 33.6029 12.1115 33.4344 11.5943C33.2659 11.0713 33.1874 10.499 33.199 9.87721L36.1277 9.88593C36.1103 10.1416 36.1044 10.3886 36.1103 10.6268C36.1161 10.8651 36.1538 11.0771 36.2236 11.2631C36.2933 11.449 36.4124 11.5972 36.5809 11.7076C36.7553 11.8122 37.0022 11.8645 37.3218 11.8645C37.5833 11.8645 37.7983 11.8064 37.9668 11.6902C38.1353 11.5682 38.2661 11.4084 38.3591 11.2108C38.4578 11.0074 38.5247 10.7895 38.5595 10.5571ZM47.3589 0.611825L45.0316 14H42.2337L44.561 0.611825H47.3589ZM45.6156 8.99687L45.0839 9.0143C45.1188 8.56105 45.1943 8.06423 45.3106 7.52382C45.4326 6.98341 45.6127 6.47206 45.851 5.98976C46.0892 5.50165 46.4059 5.10651 46.801 4.80435C47.1962 4.50218 47.6901 4.36272 48.2828 4.38597C48.7942 4.39759 49.2009 4.52252 49.5031 4.76076C49.8111 4.9932 50.0377 5.29536 50.1829 5.66726C50.3282 6.03915 50.4154 6.443 50.4444 6.87882C50.4735 7.30882 50.4677 7.7301 50.427 8.14267L49.4508 14H46.6441L47.6291 8.11652C47.6465 7.91315 47.6581 7.70105 47.664 7.48024C47.6698 7.25361 47.6291 7.05895 47.5419 6.89625C47.4548 6.72773 47.2746 6.64057 47.0015 6.63476C46.6935 6.62895 46.4495 6.70449 46.2693 6.86138C46.095 7.01828 45.9643 7.22166 45.8771 7.47152C45.7958 7.71558 45.7377 7.97416 45.7028 8.24727C45.6737 8.52038 45.6447 8.77024 45.6156 8.99687ZM53.5521 12.7536L56.7858 4.56901H59.8539L54.9903 15.412C54.845 15.7433 54.6794 16.0541 54.4934 16.3447C54.3133 16.641 54.1041 16.8996 53.8659 17.1204C53.6276 17.3412 53.3545 17.5156 53.0465 17.6434C52.7444 17.7712 52.3957 17.8322 52.0006 17.8264C51.7972 17.8322 51.5996 17.8148 51.4079 17.7741C51.2161 17.7335 51.0215 17.6841 50.8239 17.626L51.0941 15.5341C51.1348 15.5399 51.1754 15.5428 51.2161 15.5428C51.2568 15.5486 51.2975 15.5515 51.3381 15.5515C51.5473 15.5573 51.7304 15.5253 51.8873 15.4556C52.0442 15.3917 52.1807 15.2958 52.2969 15.168C52.4132 15.046 52.5119 14.8949 52.5933 14.7147L53.5521 12.7536ZM54.8944 4.56901L55.0077 11.3067L54.7724 14.2789L52.9594 14.2702L51.9831 4.56901H54.8944ZM63.0313 6.73936L61.7674 14H58.9695L60.6082 4.56901H63.2143L63.0313 6.73936ZM62.3514 8.99687L61.8546 9.02302C61.8895 8.52909 61.9679 8.00902 62.0899 7.4628C62.212 6.91078 62.3979 6.39942 62.6478 5.92874C62.8976 5.45807 63.2289 5.08036 63.6414 4.79563C64.0598 4.50509 64.5799 4.36563 65.2016 4.37725C65.6956 4.40049 66.0849 4.53124 66.3696 4.76948C66.6602 5.00191 66.8665 5.30117 66.9885 5.66726C67.1163 6.03334 67.186 6.42848 67.1977 6.85267C67.2151 7.27105 67.2064 7.6749 67.1715 8.06423L66.1779 14H63.3712L64.3649 8.03808C64.3823 7.84051 64.391 7.63422 64.391 7.41922C64.3968 7.20422 64.3562 7.02118 64.269 6.8701C64.1818 6.71902 64.0046 6.64057 63.7373 6.63476C63.441 6.62895 63.2056 6.7074 63.0313 6.8701C62.857 7.0328 62.7262 7.24199 62.6391 7.49767C62.5519 7.74754 62.488 8.00902 62.4473 8.28213C62.4124 8.54943 62.3805 8.78768 62.3514 8.99687ZM71.482 0.611825L71.2554 2.03257C71.1915 2.45096 71.0723 2.85481 70.898 3.24414C70.7237 3.63346 70.5087 3.99954 70.253 4.34238C69.9973 4.68522 69.7097 4.99901 69.3901 5.28374L68.196 4.56901C68.4226 4.15644 68.626 3.74677 68.8061 3.34001C68.9921 2.93326 69.1286 2.49744 69.2158 2.03257L69.4598 0.611825H71.482Z" fill="#7B68EE"/>
</svg>
