<svg xmlns="http://www.w3.org/2000/svg" width="24" height="24" viewBox="0 0 24 24" fill="none">
    <path fill-rule="evenodd" clip-rule="evenodd" d="M11.25 3C11.25 2.58579 11.5858 2.25 12 2.25C17.3852 2.25 21.75 6.61479 21.75 12C21.75 14.0126 21.1277 15.8713 20.085 17.419C19.8536 17.7626 19.3875 17.8534 19.044 17.622C18.7004 17.3906 18.6096 16.9245 18.841 16.581C19.7263 15.2667 20.25 13.6974 20.25 12C20.25 7.44321 16.5568 3.75 12 3.75C11.5858 3.75 11.25 3.41421 11.25 3ZM7.32951 4.28219C7.57241 4.61771 7.49733 5.08661 7.16181 5.32951C6.6324 5.71278 6.15157 6.15363 5.73041 6.64696C5.46147 6.96199 4.98807 6.99935 4.67304 6.73041C4.35801 6.46147 4.32065 5.98807 4.58959 5.67304C5.09043 5.08637 5.6596 4.56522 6.28219 4.11449C6.61771 3.87159 7.08661 3.94667 7.32951 4.28219ZM10.7353 9.78309C10.7321 9.7883 10.728 9.79689 10.728 9.815V14.185C10.728 14.2033 10.7322 14.212 10.7353 14.2173C10.7397 14.2245 10.7477 14.2332 10.76 14.2402C10.7722 14.2472 10.7836 14.2496 10.7919 14.2497C10.7978 14.2497 10.8072 14.2489 10.8228 14.2397L14.5179 12.0546C14.533 12.0457 14.5384 12.0379 14.5415 12.0324C14.5455 12.0249 14.549 12.0138 14.549 12C14.549 11.9862 14.5455 11.9751 14.5415 11.9676C14.5384 11.9621 14.533 11.9543 14.518 11.9454C14.518 11.9454 14.518 11.9455 14.518 11.9454L10.8242 9.76053C10.8086 9.75132 10.7988 9.75027 10.7927 9.75032C10.7843 9.75041 10.7726 9.75288 10.7602 9.75995C10.7478 9.76702 10.7396 9.77585 10.7353 9.78309ZM11.5878 8.46947C10.5459 7.85273 9.228 8.60414 9.228 9.815V14.185C9.228 15.3951 10.5444 16.1479 11.5872 15.5303L15.2818 13.3456C16.3043 12.7401 16.3046 11.2601 15.2821 10.6546L11.5878 8.46947C11.5879 8.46954 11.5877 8.4694 11.5878 8.46947ZM3.77344 8.29305C4.16388 8.43136 4.36827 8.86 4.22995 9.25044C3.92341 10.1158 3.75 11.0372 3.75 12C3.75 12.4142 3.41421 12.75 3 12.75C2.58579 12.75 2.25 12.4142 2.25 12C2.25 10.8548 2.45659 9.76424 2.81605 8.74956C2.95436 8.35912 3.383 8.15473 3.77344 8.29305ZM3.27247 14.2931C3.6629 14.1547 4.09156 14.3591 4.22992 14.7495C4.7446 16.2018 5.64701 17.4686 6.82035 18.4166C7.14254 18.6769 7.1927 19.1492 6.93238 19.4713C6.67206 19.7935 6.19984 19.8437 5.87765 19.5834C4.48899 18.4614 3.4234 16.9642 2.81608 15.2505C2.67772 14.8601 2.88205 14.4314 3.27247 14.2931ZM17.6231 19.0646C17.8536 19.4087 17.7616 19.8746 17.4174 20.1051C15.8681 21.143 14.0046 21.75 12 21.75C11.0119 21.75 10.0594 21.6004 9.16187 21.3276C8.76556 21.2071 8.54195 20.7882 8.66242 20.3919C8.78289 19.9956 9.20182 19.772 9.59813 19.8924C10.3586 20.1236 11.1641 20.25 12 20.25C13.6974 20.25 15.2719 19.737 16.5826 18.8589C16.9267 18.6284 17.3926 18.7204 17.6231 19.0646Z" fill="#0375DF"/>
</svg>