<svg xmlns="http://www.w3.org/2000/svg" width="20" height="20" viewBox="0 0 20 20" fill="none">
    <path d="M15.0001 10.8337H10.8334V15.0003C10.8334 15.4587 10.4584 15.8337 10.0001 15.8337C9.54175 15.8337 9.16675 15.4587 9.16675 15.0003V10.8337H5.00008C4.54175 10.8337 4.16675 10.4587 4.16675 10.0003C4.16675 9.54199 4.54175 9.16699 5.00008 9.16699H9.16675V5.00033C9.16675 4.54199 9.54175 4.16699 10.0001 4.16699C10.4584 4.16699 10.8334 4.54199 10.8334 5.00033V9.16699H15.0001C15.4584 9.16699 15.8334 9.54199 15.8334 10.0003C15.8334 10.4587 15.4584 10.8337 15.0001 10.8337Z" fill="white"/>
</svg>