<svg xmlns="http://www.w3.org/2000/svg" width="24" height="24" viewBox="0 0 24 24" fill="none">
    <path d="M17.6498 6.35097C16.0198 4.72097 13.7098 3.78097 11.1698 4.04097C7.49978 4.41097 4.47978 7.39097 4.06978 11.061C3.51978 15.911 7.26978 20.001 11.9998 20.001C15.1898 20.001 17.9298 18.131 19.2098 15.441C19.5298 14.771 19.0498 14.001 18.3098 14.001C17.9398 14.001 17.5898 14.201 17.4298 14.531C16.2998 16.961 13.5898 18.501 10.6298 17.841C8.40978 17.351 6.61978 15.541 6.14978 13.321C5.30978 9.44097 8.25978 6.00097 11.9998 6.00097C13.6598 6.00097 15.1398 6.69097 16.2198 7.78097L14.7098 9.29097C14.0798 9.92097 14.5198 11.001 15.4098 11.001H18.9998C19.5498 11.001 19.9998 10.551 19.9998 10.001V6.41097C19.9998 5.52097 18.9198 5.07097 18.2898 5.70097L17.6498 6.35097Z" fill="#818A97"/>
</svg>