<svg xmlns="http://www.w3.org/2000/svg" width="16" height="17" viewBox="0 0 16 17" fill="none">
    <path fill-rule="evenodd" clip-rule="evenodd" d="M13.6875 8.5C13.6875 10.0084 13.0883 11.4551 12.0217 12.5217C10.9551 13.5883 9.50842 14.1875 8 14.1875C6.49158 14.1875 5.04494 13.5883 3.97833 12.5217C2.91172 11.4551 2.3125 10.0084 2.3125 8.5C2.3125 6.99158 2.91172 5.54494 3.97833 4.47833C5.04494 3.41172 6.49158 2.8125 8 2.8125C9.50842 2.8125 10.9551 3.41172 12.0217 4.47833C13.0883 5.54494 13.6875 6.99158 13.6875 8.5ZM1 8.5C1 10.3565 1.7375 12.137 3.05025 13.4497C4.36301 14.7625 6.14348 15.5 8 15.5C9.85652 15.5 11.637 14.7625 12.9497 13.4497C14.2625 12.137 15 10.3565 15 8.5C15 6.64348 14.2625 4.86301 12.9497 3.55025C11.637 2.2375 9.85652 1.5 8 1.5C6.14348 1.5 4.36301 2.2375 3.05025 3.55025C1.7375 4.86301 1 6.64348 1 8.5ZM7.34375 4.78125V8.5C7.34375 8.71875 7.45312 8.92383 7.63633 9.04688L10.2613 10.7969C10.5621 10.9992 10.9695 10.9172 11.1719 10.6137C11.3742 10.3102 11.2922 9.90547 10.9887 9.70312L8.65625 8.15V4.78125C8.65625 4.41758 8.36367 4.125 8 4.125C7.63633 4.125 7.34375 4.41758 7.34375 4.78125Z" fill="#333333"/>
</svg>