<svg width="78" height="78" viewBox="0 0 78 78" fill="none" xmlns="http://www.w3.org/2000/svg">
<rect width="78" height="78" rx="12" fill="#5CCA6D" fill-opacity="0.3"/>
<path d="M47.2037 24.7756C46.452 24.575 45.8331 24.0054 45.5557 23.2828C44.5947 20.7788 42.1551 19 39.2973 19C36.4395 19 33.9999 20.7788 33.0389 23.2828C32.7615 24.0054 32.1426 24.575 31.3909 24.7756C28.2316 25.6188 25.9058 28.4843 25.9058 31.8894C25.9058 32.357 25.9497 32.8144 26.0335 33.2578C26.2104 34.1932 25.8103 35.2015 25.0375 35.7639C23.1959 37.1039 22 39.2682 22 41.71C22 45.7778 25.319 49.2703 29.4131 49.2703H37.3479H41.2468H49.1815C53.2756 49.2703 56.5946 45.7778 56.5946 41.71C56.5946 39.2682 55.3987 37.1039 53.5571 35.7639C52.7843 35.2015 52.3842 34.1932 52.5611 33.2578C52.6449 32.8144 52.6888 32.357 52.6888 31.8894C52.6888 28.4843 50.363 25.6188 47.2037 24.7756Z" fill="#5CCA6D"/>
<path d="M37.1353 30.8917C37.1353 29.6975 38.1033 28.7295 39.2974 28.7295V28.7295C40.4915 28.7295 41.4596 29.6975 41.4596 30.8917V56.8376C41.4596 58.0317 40.4915 58.9998 39.2974 58.9998V58.9998C38.1033 58.9998 37.1353 58.0317 37.1353 56.8376V30.8917Z" fill="#616161" fill-opacity="0.4"/>
</svg>
