<svg width="78" height="78" viewBox="0 0 78 78" fill="none" xmlns="http://www.w3.org/2000/svg">
<rect width="78" height="78" rx="12" fill="#FDDBE1"/>
<path fill-rule="evenodd" clip-rule="evenodd" d="M54.9949 21.6053L48.4973 22.7524C47.8773 22.8618 47.6208 23.6113 48.0438 24.0777L49.7345 25.9416L40.6305 34.4071L37.2426 31.0146C36.8804 30.6518 36.3025 30.6218 35.9046 30.9449L21.7695 42.4244C21.3408 42.7725 21.2755 43.4023 21.6237 43.831C21.9718 44.2597 22.6016 44.325 23.0304 43.9769L36.465 33.0663L39.8971 36.5031C40.2776 36.8841 40.8914 36.8955 41.2857 36.5289L51.0783 27.4232L53.1021 29.6545C53.54 30.1372 54.3405 29.9218 54.4769 29.2844L55.9162 22.5606C56.0351 22.0055 55.5539 21.5066 54.9949 21.6053ZM47.8001 36.2004C46.9164 36.2004 46.2001 36.9168 46.2001 37.8004V55.0004C46.2001 55.8841 46.9164 56.6004 47.8001 56.6004H52.6001C53.4838 56.6004 54.2001 55.8841 54.2001 55.0004V37.8004C54.2001 36.9168 53.4838 36.2004 52.6001 36.2004H47.8001ZM35.0001 43.8004C35.0001 42.9168 35.7164 42.2004 36.6001 42.2004H41.4001C42.2838 42.2004 43.0001 42.9168 43.0001 43.8004V55.0004C43.0001 55.8841 42.2838 56.6004 41.4001 56.6004H36.6001C35.7164 56.6004 35.0001 55.8841 35.0001 55.0004V43.8004ZM23.8001 48.2004C23.8001 47.3168 24.5164 46.6004 25.4001 46.6004H30.2001C31.0838 46.6004 31.8001 47.3168 31.8001 48.2004V55.0004C31.8001 55.8841 31.0838 56.6004 30.2001 56.6004H25.4001C24.5164 56.6004 23.8001 55.8841 23.8001 55.0004V48.2004Z" fill="#F86D86"/>
<mask id="mask0_446_2582" style="mask-type:alpha" maskUnits="userSpaceOnUse" x="21" y="21" width="35" height="36">
<path fill-rule="evenodd" clip-rule="evenodd" d="M54.9953 21.6053L48.4978 22.7524C47.8778 22.8618 47.6213 23.6113 48.0443 24.0777L49.735 25.9416L40.631 34.4071L37.2431 31.0146C36.8809 30.6518 36.303 30.6218 35.9051 30.9449L21.77 42.4244C21.3413 42.7725 21.276 43.4023 21.6242 43.831C21.9723 44.2597 22.6021 44.325 23.0308 43.9769L36.4655 33.0663L39.8976 36.5031C40.2781 36.8841 40.8919 36.8955 41.2862 36.5289L51.0787 27.4232L53.1026 29.6545C53.5405 30.1372 54.341 29.9218 54.4774 29.2844L55.9167 22.5606C56.0355 22.0055 55.5544 21.5066 54.9953 21.6053ZM47.8006 36.2004C46.9169 36.2004 46.2006 36.9168 46.2006 37.8004V55.0004C46.2006 55.8841 46.9169 56.6004 47.8006 56.6004H52.6006C53.4842 56.6004 54.2006 55.8841 54.2006 55.0004V37.8004C54.2006 36.9168 53.4842 36.2004 52.6006 36.2004H47.8006ZM35.0006 43.8004C35.0006 42.9168 35.7169 42.2004 36.6006 42.2004H41.4006C42.2842 42.2004 43.0006 42.9168 43.0006 43.8004V55.0004C43.0006 55.8841 42.2842 56.6004 41.4006 56.6004H36.6006C35.7169 56.6004 35.0006 55.8841 35.0006 55.0004V43.8004ZM23.8006 48.2004C23.8006 47.3168 24.5169 46.6004 25.4006 46.6004H30.2006C31.0842 46.6004 31.8006 47.3168 31.8006 48.2004V55.0004C31.8006 55.8841 31.0842 56.6004 30.2006 56.6004H25.4006C24.5169 56.6004 23.8006 55.8841 23.8006 55.0004V48.2004Z" fill="#F86D86"/>
</mask>
<g mask="url(#mask0_446_2582)">
<g style="mix-blend-mode:color-burn" opacity="0.5" filter="url(#filter0_d_446_2582)">
<path d="M31.4845 22.6357C31.1477 21.4258 29.6924 20.9965 28.7812 21.8383L27.3508 23.1597C27.0202 23.4652 27.1335 24.0232 27.5555 24.1676L28.5301 24.501C28.8687 24.6169 29.097 24.942 29.097 25.3083V26.9133C29.097 27.3002 28.6413 27.4939 28.3747 27.2203L24.1646 22.8987C23.8409 22.5664 23.3116 22.564 23.0254 22.9308C20.6878 25.9279 20.8722 30.3143 23.5785 33.0922C25.0477 34.6004 26.9786 35.3455 28.9042 35.3277C29.2349 35.3246 29.4773 35.6765 29.3363 35.9836L28.7744 37.2074C28.4818 37.8445 28.6788 38.6053 29.241 39.0093L30.5991 39.9851C31.6972 40.7741 33.15 40.8069 34.2809 40.0682L35.8356 39.0527C36.4715 38.6373 36.6764 37.7818 36.3007 37.1111L35.6901 36.0212C35.5193 35.7163 35.7552 35.3331 36.0978 35.3268C37.9561 35.2927 39.8043 34.5478 41.2223 33.0922C43.9286 30.3143 44.1129 25.9279 41.7754 22.9308C41.4892 22.564 40.9599 22.5664 40.6361 22.8987L36.4511 27.1946C36.1846 27.4682 35.7289 27.2744 35.7289 26.8875V25.3083C35.7289 24.942 35.9572 24.6169 36.2957 24.501L37.2704 24.1676C37.6924 24.0232 37.8057 23.4652 37.4751 23.1597L36.0447 21.8383C35.1335 20.9965 33.6782 21.4258 33.3414 22.6357L32.8197 24.5099C32.7028 24.9299 32.123 24.9299 32.0061 24.5099L31.4845 22.6357Z" fill="white"/>
</g>
</g>
<defs>
<filter id="filter0_d_446_2582" x="16.6004" y="16.6004" width="31.6" height="28.8002" filterUnits="userSpaceOnUse" color-interpolation-filters="sRGB">
<feFlood flood-opacity="0" result="BackgroundImageFix"/>
<feColorMatrix in="SourceAlpha" type="matrix" values="0 0 0 0 0 0 0 0 0 0 0 0 0 0 0 0 0 0 127 0" result="hardAlpha"/>
<feOffset/>
<feGaussianBlur stdDeviation="2.4"/>
<feComposite in2="hardAlpha" operator="out"/>
<feColorMatrix type="matrix" values="0 0 0 0 0 0 0 0 0 0 0 0 0 0 0 0 0 0 0.4 0"/>
<feBlend mode="normal" in2="BackgroundImageFix" result="effect1_dropShadow_446_2582"/>
<feBlend mode="normal" in="SourceGraphic" in2="effect1_dropShadow_446_2582" result="shape"/>
</filter>
</defs>
</svg>
