<svg width="78" height="78" viewBox="0 0 78 78" fill="none" xmlns="http://www.w3.org/2000/svg">
<rect width="78" height="78" rx="12" fill="#5BD8D1" fill-opacity="0.3"/>
<path d="M53.332 36.457L49.8223 35.5957C49.6289 34.9805 49.3828 34.3828 49.084 33.8027L50.877 30.8145C51.0879 30.4629 51.0352 30.0234 50.7539 29.7422L48.2578 27.2461C47.9766 26.9648 47.5371 26.9121 47.1855 27.123L44.1973 28.916C43.6172 28.6172 43.0195 28.3711 42.4043 28.1777L41.5605 24.668C41.4551 24.2812 41.1035 24 40.6992 24H37.1836C36.7793 24 36.4277 24.2812 36.3223 24.668L35.4785 28.1777C34.8633 28.3711 34.2656 28.6172 33.6855 28.916L30.6973 27.123C30.3457 26.9121 29.9063 26.9648 29.625 27.2461L27.1289 29.7422C26.8477 30.0234 26.7949 30.4629 27.0059 30.8145L28.7988 33.8027C28.5 34.3828 28.2539 34.9805 28.0605 35.5957L24.668 36.457C24.2812 36.5449 24 36.8965 24 37.3008V40.8164C24 41.2207 24.2812 41.5723 24.668 41.6602L28.0605 42.5215C28.2539 43.1367 28.5 43.7344 28.7988 44.3145L27.0059 47.3027C26.7949 47.6543 26.8477 48.0937 27.1289 48.375L29.625 50.8711C29.9063 51.1523 30.3457 51.2051 30.6973 50.9941L33.6855 49.2012C34.2656 49.5 34.8633 49.7461 35.4785 49.9395L36.3223 53.332C36.4277 53.7188 36.7793 54 37.1836 54H40.6992C41.1035 54 41.4551 53.7188 41.5605 53.332L42.4043 49.9395C43.0195 49.7461 43.6172 49.5 44.1973 49.2012L47.1855 50.9941C47.5371 51.2051 47.9766 51.1523 48.2578 50.8711L50.7539 48.375C51.0352 48.0937 51.0879 47.6543 50.877 47.3027L49.084 44.3145C49.3828 43.7344 49.6289 43.1367 49.8223 42.5215L53.332 41.6602C53.7188 41.5723 54 41.2207 54 40.8164V37.3008C54 36.8965 53.7188 36.5449 53.332 36.457ZM38.9414 43.4531C36.5156 43.4531 34.5469 41.4844 34.5469 39.0586C34.5469 36.6328 36.5156 34.6641 38.9414 34.6641C41.3672 34.6641 43.3359 36.6328 43.3359 39.0586C43.3359 41.4844 41.3672 43.4531 38.9414 43.4531Z" fill="#5BD8D1"/>
</svg>
