<svg width="24" height="24" viewBox="0 0 24 24" fill="none" xmlns="http://www.w3.org/2000/svg">
<path d="M1.79555 8.38927C1.44852 7.95963 0.818912 7.89265 0.389269 8.23968C-0.0403734 8.5867 -0.107349 9.21631 0.239676 9.64595C0.902189 10.4662 1.63357 11.2454 2.42846 11.9575L0.580746 13.6799C0.176757 14.0564 0.154537 14.6892 0.531115 15.0932C0.907693 15.4972 1.54047 15.5194 1.94446 15.1428L4.00823 13.2191C5.11362 14.0003 6.31541 14.6473 7.60269 15.1071L6.84603 17.5757C6.68418 18.1037 6.98103 18.663 7.50907 18.8248C8.03711 18.9867 8.59637 18.6898 8.75822 18.1618L9.532 15.6373C10.3281 15.7921 11.1515 15.8748 11.9998 15.8748C12.8484 15.8748 13.6718 15.7921 14.4681 15.6372L15.2419 18.1618C15.4038 18.6898 15.963 18.9867 16.4911 18.8248C17.0191 18.663 17.316 18.1037 17.1541 17.5757L16.3974 15.1069C17.6846 14.6471 18.8864 14.0001 19.9917 13.2189L22.0557 15.1428C22.4597 15.5194 23.0924 15.4972 23.469 15.0932C23.8456 14.6892 23.8234 14.0564 23.4194 13.6799L21.5715 11.9573C22.3662 11.2453 23.0976 10.4661 23.76 9.64595C24.107 9.21631 24.04 8.5867 23.6104 8.23968C23.1808 7.89265 22.5511 7.95963 22.2041 8.38927C19.6299 11.5763 16.0924 13.8748 11.9998 13.8748C7.9073 13.8748 4.36975 11.5763 1.79555 8.38927Z" fill="#7D7C81"/>
</svg>
